# xmcd
#
# Track frame offsets:
# 150
# 14298
# 28221
# 40344
# 60192
# 72915
# 93438
# 105186
# 119184
# 132357
# 151455
# 168303
#
# Disc length: 2427 seconds
#
#
# Revision: 2
# Processed by: cddbd v1.5.2PL0 Copyright (c) Steve Scherf et al.
# Submitted via: FreeRIP 2.90 
#
DISCID=9b09790c
DTITLE=Porca Veia - Gauderio por Excelencia
DYEAR=2000
DGENRE=Gaúcha
TTITLE0=Marca Borrada
TTITLE1=Lá Fora
TTITLE2=Serrana
TTITLE3=Marcha Tropeira
TTITLE4=Teatino e Chineiro
TTITLE5=Súplica
TTITLE6=Vou Deixar Saudade
TTITLE7=Minha Terra que é Lugar de Alegria
TTITLE8=Gaiteiro, Alma e Coedeona
TTITLE9=Saudade Bruaca
TTITLE10=Cavalo Baio
TTITLE11=Abandono
EXTD=
EXTT0=
EXTT1=
EXTT2=
EXTT3=
EXTT4=
EXTT5=
EXTT6=
EXTT7=
EXTT8=
EXTT9=
EXTT10=
EXTT11=
PLAYORDER=
